<svg width="29" height="25" viewBox="0 0 29 25" fill="none" xmlns="http://www.w3.org/2000/svg">
<path d="M13.5649 1.46673C13.8912 0.606012 15.1088 0.606011 15.4351 1.46673L18.1843 8.7192C18.3316 9.10776 18.7038 9.36475 19.1194 9.36475H27.646C28.6516 9.36475 29.0282 10.682 28.1746 11.2136L21.5551 15.3359C21.1496 15.5885 20.9793 16.0925 21.1487 16.5392L23.7368 23.3669C24.076 24.2617 23.0855 25.0761 22.2731 24.5702L15.0286 20.0587C14.705 19.8572 14.295 19.8572 13.9714 20.0587L6.72687 24.5702C5.91453 25.0761 4.92396 24.2617 5.26317 23.3669L7.85135 16.5392C8.02068 16.0925 7.85041 15.5885 7.4449 15.3359L0.825366 11.2136C-0.0281881 10.6821 0.348453 9.36475 1.35399 9.36475H9.88064C10.2962 9.36475 10.6684 9.10776 10.8157 8.71921L13.5649 1.46673Z" fill="#FDB973"/>
</svg>
